<svg width="327" height="327" viewBox="0 0 327 327" fill="none" xmlns="http://www.w3.org/2000/svg">
<path d="M189.368 161.623C202.452 167.579 215.77 170.382 228.153 176.221C286.096 203.43 318.573 248.624 326.049 312.152C327.334 322.779 324.881 326.4 313.199 326.283C213.316 325.816 113.551 325.816 13.6681 326.283C2.33643 326.283 0 323.013 0 312.269C0.467287 212.539 0.467287 112.809 0 12.9626C0 2.3356 2.80372 0 13.2008 0C113.551 0.350339 213.784 0.350339 314.133 0C323.713 0 327.451 1.86848 326.166 12.1451C318.105 79.8774 283.643 127.524 219.975 153.215C214.835 155.317 209.228 156.018 203.854 157.536C199.064 158.821 194.274 160.222 189.368 161.623Z" fill="#FF4949"/>
</svg>
