<svg width="327" height="327" viewBox="0 0 327 327" fill="none" xmlns="http://www.w3.org/2000/svg">
<path d="M161.623 137.043C167.579 123.959 170.382 110.641 176.221 98.2582C203.43 40.3147 248.624 7.72145 312.152 0.361685C322.779 -0.923353 326.4 1.5299 326.283 13.2121C325.816 113.095 325.816 212.86 326.283 312.743C326.283 324.074 323.013 326.411 312.269 326.411C212.422 326.06 112.693 325.944 12.8458 326.411C2.3356 326.411 0 323.607 0 313.21C0.350339 212.86 0.350339 112.627 0 12.2775C0 2.69812 1.98526 -1.04018 12.2619 0.244863C79.9942 8.30556 127.64 42.7679 153.332 106.436C155.434 111.576 156.135 117.183 157.653 122.557C158.937 127.347 160.339 132.136 161.74 137.043H161.623Z" fill="#00A167"/>
</svg>
